<?xml version="1.0" encoding="iso-8859-1"?>
<!-- Uploaded to: SVG Repo, www.svgrepo.com, Generator: SVG Repo Mixer Tools -->
<svg height="800px" width="800px" version="1.1" id="Layer_1" xmlns="http://www.w3.org/2000/svg" xmlns:xlink="http://www.w3.org/1999/xlink" 
	 viewBox="0 0 291.505 291.505" xml:space="preserve">
<g>
	<path style="fill:#FFDB77;" d="M283.774,152.855c-5.163,0-133.554,0-141,0c-13.808,0-25,11.193-25,25s11.192,25,25,25h11.745
		l-42.206,26.599l-66.261-41.758c-11.68-7.359-27.117-3.86-34.479,7.821c-7.361,11.681-3.859,27.118,7.821,34.479l79.59,50.158
		c8.144,5.132,18.513,5.133,26.658,0l122.656-77.3h35.476V152.855z"/>
	<g>
		<path style="fill:#FF7876;" d="M134.404,88.686c0,19.4-15.727,35.128-35.128,35.128c-19.4,0-35.128-15.727-35.128-35.128
			c0-19.4,35.128-81.192,35.128-81.192S134.404,69.285,134.404,88.686z"/>
		<g>
			<path style="fill:#414042;" d="M283.774,145.355c-5.086,0-133.489,0-141,0c-17.921,0-32.5,14.579-32.5,32.5
				c0,14.018,8.922,25.992,21.385,30.542l-19.346,12.192L50.05,181.351c-15.161-9.553-35.268-4.992-44.823,10.168
				c-9.554,15.161-4.993,35.269,10.168,44.823l79.59,50.158c10.585,6.671,24.063,6.676,34.655,0l120.824-76.145h33.31
				c4.142,0,7.5-3.358,7.5-7.5v-50C291.274,148.713,287.916,145.355,283.774,145.355z M276.274,195.355h-27.976
				c-1.415,0-2.801,0.4-3.999,1.155l-122.657,77.3c-5.698,3.592-12.957,3.595-18.661,0l-79.59-50.158
				c-8.163-5.145-10.619-15.972-5.475-24.135c5.145-8.163,15.972-10.619,24.136-5.475l66.261,41.758c2.443,1.54,5.554,1.54,7.997,0
				l40.374-25.444h13.591c4.142,0,7.5-3.358,7.5-7.5s-3.358-7.5-7.5-7.5c-15.5,0-12.165,0-27.502,0c-9.65,0-17.5-7.851-17.5-17.5
				c0-9.65,7.85-17.5,17.5-17.5c10.6,0,129.082,0,133.5,0L276.274,195.355L276.274,195.355z"/>
			<path style="fill:#414042;" d="M99.277,131.314c23.505,0,42.627-19.123,42.627-42.628c0-18.909-27-68.887-36.107-84.898
				c-2.871-5.05-10.168-5.052-13.04,0C83.5,20.062,56.649,69.812,56.649,88.686C56.649,112.191,75.771,131.314,99.277,131.314z
				 M99.277,23.016c12.616,23.486,27.627,54.928,27.627,65.669c0,15.234-12.394,27.628-27.627,27.628s-27.628-12.394-27.628-27.628
				C71.649,77.951,86.66,46.505,99.277,23.016z"/>
		</g>
	</g>
</g>
</svg>